<?xml version="1.0" encoding="UTF-8" standalone="no"?>
<svg width="61px" height="52px" viewBox="0 0 61 52" version="1.1" xmlns="http://www.w3.org/2000/svg" xmlns:xlink="http://www.w3.org/1999/xlink">
    <!-- Generator: Sketch 41.2 (35397) - http://www.bohemiancoding.com/sketch -->
    <title>Combined Shape</title>
    <desc>Created with Sketch.</desc>
    <defs></defs>
    <g id="Page-1" stroke="none" stroke-width="1" fill="none" fill-rule="evenodd">
        <g id="noun_33531_cc" fill="#000000">
            <path d="M30.408,2.658 L30.408,2.515 L30.408,2.515 L30.408,2.397 L30.943,2.383 C30.943,2.383 30.959,2.356 30.945,2.232 C31.207,2.122 31.757,0.76 31.605,0.815 C31.454,0.87 30.89,1.311 30.735,1.42 C30.58,1.53 30.519,1.792 30.395,1.736 C30.27,1.682 30.395,1.544 30.433,1.406 C30.472,1.269 30.23,1.089 30.093,1.173 C29.955,1.255 30.01,1.668 30.01,1.668 C30.01,1.668 30.01,1.792 29.749,1.737 C29.667,1.572 28.938,0.857 28.483,0.87 C28.483,1.627 29.389,2.149 29.389,2.149 L29.389,2.397 L29.899,2.397 C29.899,2.397 29.913,2.549 29.913,2.7 C29.005,2.7 28.95,4.626 30.175,4.626 L30.175,5.672 L30.216,5.768 C30.216,5.768 30.409,5.837 30.409,5.7 C30.409,5.562 30.353,5.508 30.353,5.508 L30.381,4.628 C31.549,4.625 31.261,2.658 30.408,2.658 Z M30.067,3.827 L30.067,4.162 L30.067,4.24 C29.687,4.226 29.665,3.827 29.665,3.827 L29.68,3.827 C29.669,3.782 29.665,3.749 29.665,3.749 L30.067,3.749 L30.067,3.827 Z M30.073,3.081 L30.073,3.405 L30.073,3.483 L29.66,3.483 C29.661,3.45 29.678,3.433 29.685,3.405 L29.66,3.405 C29.674,3.026 30.073,3.003 30.073,3.003 L30.073,3.081 Z M30.418,3.412 L30.418,3.077 L30.418,2.999 C30.797,3.012 30.82,3.412 30.82,3.412 L30.805,3.412 C30.815,3.457 30.82,3.49 30.82,3.49 L30.418,3.49 L30.418,3.412 Z M30.824,3.834 C30.81,4.213 30.411,4.236 30.411,4.236 L30.411,4.158 L30.411,3.834 L30.411,3.756 L30.824,3.756 C30.823,3.789 30.806,3.806 30.8,3.834 L30.824,3.834 L30.824,3.834 Z M57.08,21.617 L57.08,21.19 L56.861,21.19 L56.861,17.722 L56.888,17.722 L57.458,17.127 L39.255,17.127 L39.255,16.814 L39.334,16.814 L39.522,16.22 L35.598,16.22 C35.69,16.185 35.804,16.069 35.91,16.034 C36.076,15.979 36.048,15.731 36.103,15.401 C36.158,15.071 36.295,14.713 36.35,14.934 C36.406,15.154 36.213,15.677 36.295,15.896 C36.378,16.116 36.708,15.787 36.708,15.594 C36.708,15.401 36.653,14.658 36.625,14.493 C36.598,14.328 36.873,13.778 37.203,13.75 C37.534,13.723 37.616,13.86 37.835,14.328 C38.056,14.796 37.698,15.346 37.56,15.4 C37.56,15.4 37.56,15.703 37.725,15.786 C37.891,15.868 38.111,15.483 38.165,15.264 C38.22,15.043 38.385,14.411 38.358,14.108 C38.331,13.806 38.083,13.668 38.134,13.42 C38.185,13.172 38.137,12.594 38.083,12.43 C38.028,12.265 37.808,12.072 37.808,12.072 C37.808,11.88 38.303,11.44 38.247,11.165 C38.302,11.054 38.33,10.477 38.33,10.477 L38.468,10.339 L38.358,10.202 L38.275,9.817 L38.468,9.377 L38.22,9.57 L38.165,9.212 L38,9.431 L37.587,9.431 C37.587,9.431 37.285,9.705 37.174,9.733 C37.064,9.76 36.954,9.843 36.954,9.843 L36.817,10.311 L36.569,10.503 C36.569,10.503 36.762,10.64 36.762,10.806 C36.762,10.957 36.689,11.265 36.551,11.486 L34.65,11.471 C34.612,11.345 34.571,11.274 34.528,11.274 C34.485,11.274 34.445,11.344 34.407,11.47 L33.928,11.466 C33.928,11.356 34.121,11.081 34.203,10.916 C34.286,10.751 34.038,10.558 34.011,10.476 C33.983,10.394 34.093,9.954 34.087,9.844 C34.081,9.734 33.956,9.651 34.066,9.404 C34.175,9.157 33.818,9.212 33.735,9.349 C33.653,9.486 33.515,9.514 33.433,9.266 C33.35,9.018 33.13,9.239 33.13,9.349 C33.13,9.459 33.102,9.596 32.882,9.844 C32.662,10.092 32.799,10.724 32.772,11.082 C32.748,11.398 32.57,11.42 32.341,11.551 C32.383,11.524 32.409,11.492 32.456,11.467 C32.677,10.755 32.594,10.257 32.594,10.257 C32.594,10.257 32.292,9.68 30.751,9.68 C29.21,9.68 28.962,10.202 28.962,10.202 C28.962,10.202 28.902,10.369 28.863,10.578 C28.876,10.29 28.877,9.995 28.742,9.844 C28.522,9.596 28.494,9.459 28.494,9.349 C28.494,9.239 28.274,9.018 28.191,9.266 C28.108,9.514 27.971,9.486 27.889,9.349 C27.806,9.211 27.449,9.157 27.558,9.404 C27.668,9.652 27.544,9.734 27.537,9.844 C27.531,9.954 27.641,10.394 27.613,10.476 C27.585,10.559 27.338,10.751 27.421,10.916 C27.504,11.081 27.696,11.356 27.696,11.466 L27.217,11.47 C27.18,11.345 27.139,11.274 27.096,11.274 C27.053,11.274 27.012,11.345 26.975,11.471 L25.074,11.486 C24.935,11.266 24.863,10.957 24.863,10.806 C24.863,10.64 25.056,10.503 25.056,10.503 L24.808,10.311 L24.67,9.843 C24.67,9.843 24.56,9.76 24.45,9.733 C24.34,9.705 24.037,9.431 24.037,9.431 L23.624,9.431 L23.458,9.211 L23.404,9.569 L23.156,9.376 L23.348,9.816 L23.265,10.201 L23.155,10.338 L23.293,10.476 C23.293,10.476 23.32,11.054 23.376,11.164 C23.32,11.439 23.816,11.879 23.816,12.071 C23.816,12.071 23.596,12.264 23.541,12.429 C23.486,12.594 23.439,13.172 23.489,13.419 C23.541,13.667 23.293,13.805 23.265,14.107 C23.238,14.41 23.403,15.042 23.457,15.263 C23.513,15.483 23.732,15.867 23.898,15.785 C24.063,15.702 24.063,15.399 24.063,15.399 C23.925,15.345 23.567,14.795 23.787,14.327 C24.008,13.859 24.09,13.722 24.42,13.749 C24.75,13.777 25.025,14.327 24.998,14.492 C24.971,14.657 24.915,15.399 24.915,15.593 C24.915,15.786 25.246,16.115 25.328,15.895 C25.411,15.675 25.218,15.153 25.273,14.933 C25.328,14.712 25.466,15.07 25.521,15.4 C25.576,15.731 25.548,15.978 25.713,16.033 C25.819,16.068 25.934,16.184 26.025,16.219 L21.98,16.219 L22.168,16.813 L22.247,16.813 L22.247,17.126 L4.21,17.126 L4.78,17.721 L4.788,17.721 L4.788,21.189 L4.423,21.189 L4.423,21.616 L0.693,21.616 L1.696,22.21 L1.72,22.21 L1.72,22.672 L2.855,22.672 L2.855,25.057 L2.092,25.057 L2.092,25.486 L2.47,25.486 L2.47,25.858 L2.092,25.858 L2.092,26.297 L2.508,26.297 L2.635,26.847 L2.854,26.847 L2.854,50.6 L2.636,50.6 L2.509,51.15 L2.14,51.15 L2.14,51.59 L2.855,51.59 L6.831,51.59 L7.532,51.59 L7.532,51.15 L7.178,51.15 L7.051,50.6 L6.831,50.6 L6.831,26.849 L7.051,26.849 L7.178,26.299 L7.485,26.299 L7.485,25.86 L12.17,25.86 L12.17,26.299 L12.58,26.299 L12.706,26.849 L12.926,26.849 L12.926,50.602 L12.706,50.602 L12.58,51.152 L12.218,51.152 L12.218,51.592 L12.926,51.592 L16.902,51.592 L17.61,51.592 L17.61,51.152 L17.249,51.152 L17.122,50.602 L16.903,50.602 L16.903,26.849 L17.122,26.849 L17.249,26.299 L17.563,26.299 L17.563,25.86 L22.248,25.86 L22.248,26.299 L22.65,26.299 L22.777,26.849 L22.996,26.849 L22.996,50.602 L22.777,50.602 L22.65,51.152 L22.296,51.152 L22.296,51.592 L22.997,51.592 L26.973,51.592 L27.688,51.592 L27.688,51.152 L27.319,51.152 L27.192,50.602 L26.972,50.602 L26.972,26.849 L27.192,26.849 L27.32,26.299 L27.64,26.299 L27.64,25.86 L33.864,25.86 L33.864,26.299 L34.281,26.299 L34.408,26.849 L34.628,26.849 L34.628,50.602 L34.408,50.602 L34.281,51.152 L33.913,51.152 L33.913,51.592 L34.628,51.592 L38.604,51.592 L39.305,51.592 L39.305,51.152 L38.951,51.152 L38.824,50.602 L38.604,50.602 L38.604,26.849 L38.824,26.849 L38.95,26.299 L39.257,26.299 L39.257,25.86 L43.943,25.86 L43.943,26.299 L44.352,26.299 L44.479,26.849 L44.699,26.849 L44.699,50.602 L44.479,50.602 L44.353,51.152 L43.992,51.152 L43.992,51.592 L44.7,51.592 L48.677,51.592 L49.385,51.592 L49.385,51.152 L49.02,51.152 L48.894,50.602 L48.674,50.602 L48.674,26.849 L48.894,26.849 L49.02,26.299 L49.333,26.299 L49.333,25.86 L54.018,25.86 L54.018,26.299 L54.421,26.299 L54.547,26.849 L54.767,26.849 L54.767,50.602 L54.547,50.602 L54.42,51.152 L54.066,51.152 L54.066,51.592 L54.767,51.592 L58.743,51.592 L59.459,51.592 L59.459,51.152 L59.09,51.152 L58.963,50.602 L58.743,50.602 L58.743,26.849 L58.963,26.849 L59.09,26.299 L59.411,26.299 L59.411,25.86 L59.128,25.86 L59.128,25.488 L59.411,25.488 L59.411,25.059 L58.743,25.059 L58.743,22.674 L59.831,22.674 L59.831,22.197 L60.81,21.617 L57.08,21.617 Z" id="Combined-Shape"></path>
        </g>
    </g>
</svg>