<?xml version="1.0" encoding="UTF-8" standalone="no"?>
<svg width="106px" height="135px" viewBox="0 0 106 135" version="1.1" xmlns="http://www.w3.org/2000/svg" xmlns:xlink="http://www.w3.org/1999/xlink">
    <!-- Generator: Sketch 41.2 (35397) - http://www.bohemiancoding.com/sketch -->
    <title>icons</title>
    <desc>Created with Sketch.</desc>
    <defs></defs>
    <g id="Page-1" stroke="none" stroke-width="1" fill="none" fill-rule="evenodd">
        <g id="icons" transform="translate(3.000000, 2.000000)" stroke="#390AFF" stroke-width="6">
            <path d="M41.1111111,84.5833333 C40,88.75 38.8888889,93.0555556 37.7777778,97.3611111 C36.6666667,101.527778 35.6944444,105.833333 34.0277778,109.722222 C31.3888889,116.111111 27.9166667,122.222222 23.4722222,127.222222 C20.5555556,130.555556 21.1111111,129.166667 20.2777778,129.027778 C19.5833333,128.888889 19.5833333,128.194444 19.4444444,127.361111 C18.75,122.222222 19.3055556,116.388889 19.5833333,110.694444 C20,104.166667 21.3888889,98.75 22.7777778,93.3333333 C25.2777778,83.0555556 27.7777778,72.9166667 30.4166667,62.6388889 C30.5555556,61.9444444 31.1111111,60.8333333 30.8333333,60.4166667 C29.7222222,57.5 29.0277778,54.8611111 28.75,51.9444444 C28.4722222,48.4722222 28.75,45.2777778 29.5833333,42.2222222 C30.9722222,36.9444444 34.3055556,32.2222222 39.3055556,30.5555556 C42.5,29.4444444 45.9722222,30 48.0555556,31.25 C50.2777778,32.5 51.6666667,34.5833333 52.3611111,37.5 C53.0555556,40.5555556 52.5,44.3055556 51.8055556,46.9444444 C50.4166667,53.0555556 48.6111111,57.6388889 46.9444444,63.4722222 C46.1111111,66.3888889 45.1388889,69.3055556 45.9722222,72.5 C46.6666667,75.4166667 48.1944444,77.3611111 50.2777778,78.8888889 C52.3611111,80.4166667 55,81.3888889 58.4722222,81.25 C64.7222222,81.1111111 69.0277778,77.2222222 71.9444444,73.4722222 C76.6666667,67.6388889 79.4444444,59.5833333 80.6944444,50.1388889 C81.1111111,47.0833333 81.3888889,43.6111111 81.1111111,40.1388889 C80.6944444,33.75 78.75,28.4722222 75.5555556,24.4444444 C72.5,20.5555556 68.1944444,17.5 62.9166667,15.8333333 C57.6388889,14.0277778 50.4166667,13.4722222 43.8888889,14.4444444 C32.0833333,16.3888889 23.75,22.7777778 18.75,31.9444444 C16.1111111,36.6666667 14.4444444,42.0833333 14.3055556,49.0277778 C14.3055556,54.3055556 15.5555556,58.3333333 17.6388889,61.5277778 C18.3333333,62.5 19.3055556,63.3333333 20,64.5833333 C20.9722222,66.25 19.8611111,68.6111111 19.3055556,70.4166667 C18.75,72.5 18.6111111,75.4166667 16.1111111,75.5555556 C15,75.5555556 12.7777778,74.1666667 11.9444444,73.6111111 C6.80555556,69.7222222 4.86111111,67.0833333 2.22222222,60.6944444 C0.277777778,55.8333333 -0.555555556,46.6666667 0.416666667,41.6666667 C1.38888889,36.8055556 3.61111111,30.1388889 5.69444444,26.5277778 C9.86111111,19.0277778 15.9722222,13.0555556 23.4722222,8.88888889 C29.1666667,5.69444444 35.5555556,3.33333333 43.3333333,2.36111111 C45.9722222,1.66666667 48.6111111,1.52777778 51.5277778,1.38888889 C60,1.11111111 67.6388889,3.05555556 73.4722222,5.69444444 C79.5833333,8.47222222 84.4444444,12.0833333 88.4722222,16.5277778 C92.6388889,21.1111111 95.6944444,26.5277778 97.6388889,33.1944444 C98.6111111,36.6666667 99.0277778,40.5555556 99.0277778,44.8611111 C99.0277778,49.1666667 98.6111111,52.7777778 97.9166667,56.5277778 C95.4166667,70.6944444 88.4722222,82.0833333 78.1944444,88.6111111 C75.6944444,90.1388889 72.6388889,91.6666667 69.3055556,92.6388889 C65.9722222,93.6111111 62.0833333,94.3055556 57.9166667,93.8888889 C53.8888889,93.6111111 50.6944444,92.5 47.9166667,90.9722222 C45,89.3055556 42.6388889,87.3611111 41.1111111,84.5833333 Z" id="XMLID_148_"></path>
        </g>
    </g>
</svg>