<?xml version="1.0" encoding="UTF-8" standalone="no"?>
<svg width="101px" height="101px" viewBox="0 0 101 101" version="1.1" xmlns="http://www.w3.org/2000/svg" xmlns:xlink="http://www.w3.org/1999/xlink">
    <!-- Generator: Sketch 41.2 (35397) - http://www.bohemiancoding.com/sketch -->
    <title>instagram-icon</title>
    <desc>Created with Sketch.</desc>
    <defs></defs>
    <g id="Page-1" stroke="none" stroke-width="1" fill="none" fill-rule="evenodd">
        <path d="M70.8588059,35.9007954 L100.07,35.9007954 L100.07,80.7441565 C100.07,91.6673986 91.2152691,100.52213 80.292027,100.52213 L19.848217,100.52213 C8.92521886,100.52213 0.0702439858,91.6671546 0.0702439858,80.7441565 L0.0702439858,35.9007954 L29.1506617,35.9007954 C26.1740355,40.0829552 24.4175821,45.1934807 24.4175821,50.7178061 C24.4175821,64.8492168 35.8734451,76.3050798 50.0050998,76.3050798 C64.1365105,76.3050798 75.5923735,64.8492168 75.5923735,50.7178061 C75.5921295,45.1932367 73.8354321,40.0827112 70.8588059,35.9007954 Z M100.07,19.777973 L100.07,32.7675304 L68.2340072,32.7675304 C63.5929103,28.0549456 57.141195,25.1302884 50.0048558,25.1302884 C42.8680286,25.1302884 36.4165574,28.0547016 31.7757044,32.7675304 L0.07,32.7675304 L0.07,19.777973 C0.07,13.1117943 3.37161519,7.22027034 8.42529205,3.63733958 L8.42529205,24.9346118 L12.4803352,24.9346118 L12.4803352,1.42414483 C13.4001615,1.05426243 14.3539018,0.752696043 15.3359445,0.523593422 L15.3359445,24.9348558 L19.3912316,24.9348558 L19.3912316,0.0114673303 C19.5437227,0.00780754404 19.6949939,0 19.848217,0 L22.1899922,0 L22.1899922,24.9343678 L26.2450354,24.9343678 L26.2450354,0 L80.292027,0 C91.2152691,0 100.07,8.85473088 100.07,19.777973 Z M91.0300839,11.4421998 C91.0300839,9.6901381 89.6095989,8.26989704 87.8575372,8.26989704 L77.1658376,8.26989704 C75.413288,8.26989704 73.9932909,9.6901381 73.9932909,11.4421998 L73.9932909,22.3691016 C73.9932909,24.1211633 75.413288,25.5414044 77.1658376,25.5414044 L87.8575372,25.5414044 C89.6095989,25.5414044 91.0300839,24.1211633 91.0300839,22.3691016 L91.0300839,11.4421998 L91.0300839,11.4421998 Z M30.292027,50.7178061 C30.292027,44.8162787 32.9021866,39.5166642 37.0243259,35.9007954 C38.4701854,34.6328014 40.1017181,33.5734153 41.8735427,32.7675304 C44.3546338,31.6390963 47.1063051,31.0049773 50.0048558,31.0049773 C52.9036505,31.0049773 55.6548338,31.6390963 58.1359249,32.7675304 C59.9079935,33.5734153 61.5395262,34.6328014 62.9853857,35.9007954 C67.107525,39.5166642 69.7174406,44.8165227 69.7174406,50.7178061 C69.7174406,61.5873713 60.874665,70.4303909 50.0048558,70.4303909 C39.1352906,70.4303909 30.292027,61.5873713 30.292027,50.7178061 Z M35.5006349,50.7178061 C35.5006349,58.7642122 42.0235939,65.2866833 50.07,65.2866833 C58.1164061,65.2866833 64.6391212,58.7642122 64.6391212,50.7178061 C64.6391212,42.671156 58.1166501,36.1486849 50.07,36.1486849 C42.0235939,36.1486849 35.5006349,42.671156 35.5006349,50.7178061 Z" id="instagram-icon" fill="#000000"></path>
    </g>
</svg>