<?xml version="1.0" encoding="UTF-8" standalone="no"?>
<svg width="120px" height="101px" viewBox="0 0 120 101" version="1.1" xmlns="http://www.w3.org/2000/svg" xmlns:xlink="http://www.w3.org/1999/xlink">
    <!-- Generator: Sketch 41.2 (35397) - http://www.bohemiancoding.com/sketch -->
    <title>reddit</title>
    <desc>Created with Sketch.</desc>
    <defs></defs>
    <g id="Page-1" stroke="none" stroke-width="1" fill="none" fill-rule="evenodd">
        <g id="reddit" fill="#0000FF">
            <path d="M85.6212529,54.5880278 C85.9303016,55.3781903 86.0706265,56.1942459 86.0706265,57.0050116 C86.0706265,58.637123 85.5068213,60.2224594 84.5607425,61.5165661 C83.6252436,62.7953596 82.2996752,63.787935 80.740232,64.2247796 L80.7430162,64.2247796 C80.7299304,64.2300696 80.7168445,64.2300696 80.7104408,64.2350812 C80.7040371,64.2350812 80.6934571,64.2403712 80.6884455,64.2403712 C79.9581439,64.4898376 79.2094664,64.6067749 78.4666357,64.6067749 C76.7253828,64.6067749 75.0153132,63.9792111 73.6482599,62.9095128 C72.2917865,61.8442691 71.2649652,60.3135035 70.9428306,58.4979118 L70.9400464,58.4979118 C70.9400464,58.4926218 70.9400464,58.4862181 70.9375406,58.4787007 C70.9375406,58.4734107 70.9375406,58.4681206 70.9322506,58.4606032 L70.9375406,58.4606032 C70.8361949,57.9925754 70.7841299,57.5251044 70.7841299,57.062645 C70.7841299,55.4903944 71.319536,53.9805104 72.2032483,52.7329002 C73.0841763,51.4930858 74.3264965,50.5083063 75.7804176,50.0012993 C75.7857077,50.0012993 75.7909977,49.9985151 75.7909977,49.9985151 C75.7985151,49.9985151 75.7985151,49.9909977 75.8051972,49.9909977 C76.6276566,49.6869606 77.4957773,49.5346636 78.35471,49.5346636 C79.9191647,49.5346636 81.460232,50.0090951 82.7596288,50.8769374 C84.0434339,51.73058 85.0855684,52.9820882 85.6078886,54.5362413 C85.6131787,54.5465429 85.6131787,54.5557309 85.6181903,54.5649188 C85.6181903,54.5752204 85.6234803,54.5807889 85.6284919,54.5883063 L85.6212529,54.5883063 L85.6212529,54.5880278 Z M80.8340603,73.8790719 C80.2209745,73.4814849 79.5112761,73.2412065 78.7603712,73.2412065 C78.1548028,73.2412065 77.5258469,73.4141067 76.9659397,73.785522 L76.9659397,73.785522 C71.6748028,76.9433875 65.4517865,78.6740603 59.2730394,78.6740603 C54.6373086,78.6740603 50.0296984,77.6956845 45.8553132,75.6451044 L45.8338747,75.6348028 L45.812993,75.627007 C45.1834803,75.3697448 44.4662645,74.822645 43.6838979,74.3017169 C43.2863109,74.0441763 42.8711833,73.7883063 42.4103944,73.5998144 C41.9557309,73.4063109 41.4506729,73.2709977 40.9108121,73.2709977 C40.4639443,73.2709977 39.9942459,73.3709513 39.5306729,73.5814385 C39.5067285,73.5906265 39.4838979,73.599536 39.4605104,73.6087239 L39.4630162,73.6087239 C38.7346636,73.8868677 38.1655684,74.3963805 37.7997216,74.9991647 C37.4177262,75.6200464 37.2300696,76.3428306 37.2300696,77.0625522 C37.2300696,77.7123898 37.3834803,78.361949 37.7008817,78.9519258 C38.0029698,79.5107193 38.4676566,79.9993503 39.0757309,80.3267749 C45.0420418,84.3510905 52.067471,86.1741995 59.1199072,86.1677958 C65.4785151,86.1677958 71.8755452,84.6957773 77.5709513,82.0162413 L77.6007425,81.9981439 L77.62942,81.9825522 C78.3803248,81.5379118 79.3784687,81.1392111 80.3192575,80.5584223 C80.7845012,80.262181 81.2391647,79.9191647 81.6289559,79.4734107 C82.0187471,79.0304408 82.3319722,78.4847332 82.5087703,77.8376798 L82.5087703,77.8348956 C82.5828306,77.5492343 82.6179118,77.2710905 82.6179118,76.9929466 C82.6179118,76.4642227 82.4878886,75.9625058 82.2723898,75.5117401 C81.9566589,74.8329466 81.4396288,74.2769374 80.8340603,73.8790719 Z M38.9443155,64.2011137 C38.9546172,64.2011137 38.9682599,64.2050116 38.9799536,64.2114153 C39.7414385,64.4895592 40.5263109,64.6270998 41.3033875,64.6270998 C43.2420418,64.6270998 45.1261253,63.8330394 46.5524826,62.5389327 C47.9766125,61.2409281 48.9519258,59.4047332 48.9519258,57.3115545 C48.9519258,57.2569838 48.9519258,57.202413 48.94942,57.1375406 C48.95471,57.0439907 48.9572158,56.9412529 48.9572158,56.8360093 C48.9572158,54.759536 47.9949884,52.9158237 46.5845012,51.6122506 C45.1687239,50.3075638 43.2890951,49.509884 41.3432019,49.509884 C40.8233875,49.509884 40.2938283,49.5708585 39.7762413,49.6916937 C39.7684455,49.6916937 39.7625986,49.6941995 39.7548028,49.6941995 L39.747007,49.6941995 C37.1710441,50.2335035 34.9099768,52.1451508 34.0755452,54.7748492 L34.0755452,54.7748492 L34.0755452,54.7776334 C34.0755452,54.7829234 34.0730394,54.787935 34.0730394,54.787935 C33.8333179,55.507935 33.7216705,56.2510441 33.7216705,56.9863573 C33.7216705,58.597587 34.2542923,60.1676102 35.172529,61.4589327 C36.0826914,62.7285383 37.3703944,63.7266821 38.9167517,64.192761 C38.9278886,64.1933179 38.9331787,64.1961021 38.9443155,64.2011137 Z M119.730766,45.4090023 L119.730766,45.4195824 C119.749142,45.6812993 119.754153,45.9424594 119.754153,46.201949 C119.754153,49.1106265 118.82116,51.9076566 117.26478,54.2806497 C115.811972,56.5013457 113.808445,58.3592575 111.500603,59.6199536 C111.648724,60.7776334 111.734478,61.9445012 111.734478,63.107471 C111.731694,69.37058 109.572251,75.5270534 105.811879,80.4612529 L105.811879,80.4637587 L105.804084,80.4637587 C98.8521578,89.7118329 88.1763341,95.1655684 77.3963805,97.9163805 L77.3935963,97.9163805 L77.3860789,97.9227842 C71.6374942,99.3185151 65.7096056,100.031555 59.7833875,100.031555 C50.9493271,100.031555 42.1222274,98.4384223 33.8851044,95.1354988 L33.8825986,95.127703 L33.8748028,95.127703 C25.3350348,91.6076102 17.1981439,86.0124362 12.2082599,77.8142923 C9.5237123,73.4402784 8.0500232,68.3086775 8.0500232,63.1528538 C8.0500232,61.9862645 8.12881671,60.8177262 8.28473318,59.6625522 C6.03730858,58.397123 4.09085847,56.6026914 2.64529002,54.4596752 C1.10227378,52.1582367 0.123897912,49.4619954 0.000278422274,46.6117865 L0.000278422274,46.6006497 L0.000278422274,46.590348 L0.000278422274,46.5675174 C0.00278422274,42.5757773 1.73679814,38.7945244 4.43136891,36.0064037 C7.12566125,33.2191183 10.8061253,31.3974014 14.7538747,31.3974014 L14.917587,31.3974014 C15.3316009,31.3692807 15.7492343,31.3531323 16.1671462,31.3531323 C18.1500696,31.3531323 20.1374478,31.6741531 22.0248724,32.3977726 L22.035174,32.4055684 L22.0457541,32.4089095 C23.6569838,33.0874246 25.2579118,33.9059861 26.684826,35.0397216 C27.1472854,34.7972158 27.6515081,34.5243619 28.2172622,34.3088631 C36.8661717,29.1872854 46.9191647,27.2116009 56.7160093,26.6416705 C56.8012065,21.7884919 57.397587,16.7075638 59.7644548,12.2611601 C61.7356845,8.56677494 65.1572158,5.69067285 69.2308121,4.69392111 L69.2477958,4.68556845 L69.2697912,4.68306265 C70.8214385,4.38292343 72.3858933,4.24454756 73.9400464,4.24454756 C78.0799072,4.24454756 82.1704872,5.22487239 85.9985151,6.75508121 C87.692993,4.19777262 90.1124826,2.20176334 92.9507193,1.08222738 L92.9780046,1.06663573 L93.00529,1.05633411 C94.6710905,0.537354988 96.4307193,0.23387471 98.1967517,0.23387471 C100.059954,0.23387471 101.937912,0.574385151 103.697262,1.36037123 L103.697262,1.35396752 C103.699768,1.36037123 103.702552,1.36037123 103.702552,1.36037123 C103.715638,1.36482599 103.72594,1.37262181 103.734849,1.37262181 C106.257077,2.34403712 108.392019,4.13930394 109.9058,6.37030162 C111.420974,8.61104408 112.312483,11.2950348 112.312483,14.054478 C112.312483,14.5631555 112.283805,15.0726682 112.224223,15.5827378 L112.218933,15.5930394 C112.218933,15.6008353 112.218933,15.6119722 112.216148,15.619768 C111.920186,19.1860789 110.113782,22.3149884 107.556473,24.5468213 C104.983852,26.7875638 101.651972,28.1409745 98.2321114,28.1409745 C97.6836195,28.1409745 97.130116,28.110348 96.5791183,28.0368445 C93.1873782,27.7776334 90.0247796,26.1363341 87.7013457,23.6948492 C85.370116,21.2572622 83.8680278,18.0002784 83.8680278,14.4846404 C83.8680278,14.3145244 83.8836195,14.140232 83.8886311,13.9715081 C80.7048724,12.5537819 77.3239907,11.3777262 73.9639907,11.3805104 C73.4778654,11.3805104 72.9920186,11.407239 72.5058933,11.4565197 L72.5006032,11.4565197 C69.985058,11.6990255 67.6460325,13.2846404 66.5128538,15.5651972 L66.5128538,15.567703 L66.5128538,15.5754988 C64.7924826,18.9260325 64.4494664,22.8425986 64.3974014,26.7302088 C74.0416705,27.3591647 83.7430162,29.6734107 92.2516009,34.5644548 L92.2646868,34.5644548 L92.3866357,34.6365661 C92.5478422,34.732065 92.8465893,34.8957773 93.1169374,35.04 C93.7019026,34.5655684 94.3202784,34.0777726 95.0258005,33.657355 C97.6051044,31.9394896 100.661346,31.08529 103.718979,31.08529 C105.075452,31.08529 106.433318,31.2581903 107.750812,31.5959165 L107.756102,31.5959165 L107.810673,31.612065 C107.830162,31.6148492 107.844362,31.6212529 107.860232,31.6212529 L107.860232,31.6237587 C110.973828,32.4158701 113.790626,34.2038979 115.911369,36.6150348 C118.030719,39.0300696 119.455963,42.0854756 119.734107,45.4023202 L119.734107,45.4092807 L119.730766,45.4092807 L119.730766,45.4090023 Z M91.3230626,13.8467749 C91.3230626,13.977355 91.3258469,14.1112761 91.3389327,14.247703 L91.3389327,14.2554988 L91.3389327,14.2710905 C91.4012993,15.9466357 92.192297,17.5060789 93.3945244,18.6579118 C94.602877,19.81058 96.2065893,20.5238979 97.8331323,20.5303016 L97.855406,20.5303016 L97.8774014,20.5303016 C97.9943387,20.5394896 98.1140603,20.5394896 98.2282135,20.5394896 C99.8706265,20.5419954 101.500232,19.8345244 102.724176,18.6865893 C103.950626,17.5328074 104.759165,15.9636195 104.824037,14.2738747 L104.826543,14.2660789 L104.826543,14.2557773 C104.837123,14.1265893 104.842413,14.0043619 104.842413,13.8723898 C104.842413,12.1330858 104.028863,10.4750812 102.75536,9.24723898 C101.487146,8.02051044 99.7795824,7.26041763 98.0959629,7.26487239 C97.552761,7.26487239 97.0145708,7.33893271 96.487239,7.50264501 L96.4691415,7.50403712 L96.4535499,7.51044084 C95.0658933,7.87099768 93.7651044,8.72658933 92.8307193,9.86283063 C91.8921578,10.9937819 91.3230626,12.3920186 91.3230626,13.8467749 Z M20.1332715,39.696891 C18.8441763,39.0966125 17.5110905,38.6678422 16.1935963,38.6734107 C15.972529,38.6734107 15.7489559,38.6864965 15.5281671,38.7104408 L15.4975406,38.7104408 L15.4669142,38.7143387 C13.5750348,38.7664037 11.6656148,39.5913689 10.232297,40.9135963 C8.79786543,42.2310905 7.84928074,44.0102088 7.77633411,45.9716937 L7.77633411,45.9897912 L7.77299304,46.0059397 C7.76018561,46.1646404 7.75489559,46.3225058 7.75489559,46.4745244 C7.75489559,47.6842691 8.12603248,48.8536427 8.75526682,49.918051 C9.22106729,50.7107193 9.83192575,51.4329466 10.5226914,52.062181 C12.7336427,47.2209745 16.1880278,43.112297 20.1332715,39.696891 Z M104.148306,63.3786543 C104.148306,59.063109 102.591369,54.7283527 100.070534,51.2383295 C95.0441763,44.2446404 87.2477958,39.6832483 79.1367981,37.1401392 L79.0797216,37.1200928 C77.5227842,36.6425986 75.9508121,36.2196752 74.3651972,35.8577262 C69.625058,34.7785615 64.7651972,34.2412065 59.910348,34.2412065 C53.3913689,34.2412065 46.8726682,35.2059397 40.6309977,37.1309513 C32.521949,39.7044084 24.6993968,44.2335035 19.6844548,51.2497448 L19.6844548,51.2550348 C17.1427378,54.759536 15.6542923,59.1087703 15.6542923,63.4396288 C15.6542923,65.0341531 15.8536427,66.6283991 16.275174,68.179768 L16.280464,68.1825522 C17.1931323,71.665058 18.9780974,74.7730858 21.2890023,77.4799072 C23.5985151,80.1931323 26.4320186,82.5076566 29.4122506,84.3956381 C30.0723898,84.8049188 30.7350348,85.19471 31.4132715,85.5753132 C40.0705336,90.4076102 50.0391647,92.5258469 59.9362413,92.5258469 C61.610116,92.5258469 63.2940139,92.4662645 64.9570302,92.3465429 C74.9237123,91.5226914 84.9316009,88.5808817 93.0219954,82.5697448 L93.0247796,82.5633411 C95.6001856,80.659768 97.9857077,78.3558237 99.8725754,75.7350348 C101.767239,73.1128538 103.154896,70.1813457 103.771044,66.997587 L103.771044,66.9883991 L103.77355,66.9856148 C104.026079,65.7967517 104.148306,64.5897912 104.148306,63.3786543 Z M112.014849,46.2041763 C112.012343,45.1567517 111.773179,44.1140603 111.248353,43.1415313 L111.235267,43.1292807 L111.229977,43.1136891 C110.528074,41.6686775 109.426079,40.5772622 108.098283,39.8333179 C106.770209,39.0843619 105.216056,38.7040371 103.656891,38.7040371 C102.247239,38.7040371 100.844826,39.0192111 99.6002784,39.644826 C103.558329,43.0816705 107.030534,47.212065 109.274339,52.0724826 C109.996845,51.4435267 110.612993,50.6753596 111.07406,49.8217169 C111.674617,48.7016241 112.014849,47.4445476 112.014849,46.2041763 Z"></path>
        </g>
    </g>
</svg>